<svg width="64" height="64" viewBox="0 0 64 64" xmlns="http://www.w3.org/2000/svg">
  <defs>
    <linearGradient id="g" x1="0%" y1="0%" x2="100%" y2="100%">
      <stop offset="0%" stop-color="#3a6ff7"/>
      <stop offset="100%" stop-color="#6b44f8"/>
    </linearGradient>
  </defs>
  <rect width="64" height="64" rx="14" fill="url(#g)"/>
  <path d="M16 21 a6 6 0 0 1 6 -6 h20 a6 6 0 0 1 6 6 v14 a6 6 0 0 1 -6 6 h-15 l-7 7 v-7 h-2 a6 6 0 0 1 -6 -6 z"
        fill="white" transform="translate(0,-2)"/>
  <rect x="22" y="20" width="20" height="3.4" rx="1.7" fill="#4f6fd6"/>
  <rect x="22" y="27" width="24" height="3.4" rx="1.7" fill="#4f6fd6"/>
  <rect x="22" y="34" width="15" height="3.4" rx="1.7" fill="#4f6fd6"/>
</svg>
